<svg width="430" height="197" viewBox="0 0 430 197" fill="none" xmlns="http://www.w3.org/2000/svg">
<g clip-path="url(#clip0_1130_564)">
<path d="M0 15C0 6.71573 6.71573 0 15 0H415C423.284 0 430 6.71573 430 15V197H0V15Z" fill="#D1DFFE"/>
<path d="M-42 223.846L24 190L37.5 197.404L56 190L74 200.577L87.5 190L106.5 200.577L123 190L143.495 203.221L161.5 190L182.4 203.221L198.5 190L215.053 203.221L229 190L242.147 200.577L255.5 190L267.853 203.221L283 190L302.589 200.577L323 190L344 200.577L361.5 192.644L385.5 200.577L409 190L437.368 197.404L453 190L468 197.404L486 194.231L481 190" stroke="#F6F9FE" stroke-width="11"/>
</g>
<defs>
<clipPath id="clip0_1130_564">
<path d="M0 15C0 6.71573 6.71573 0 15 0H415C423.284 0 430 6.71573 430 15V197H0V15Z" fill="white"/>
</clipPath>
</defs>
</svg>
