<svg width="28" height="28" viewBox="0 0 28 28" fill="none" xmlns="http://www.w3.org/2000/svg">
<path d="M3.5 22.1667V5.83333C3.5 4.54467 4.54467 3.5 5.83333 3.5H22.1667C23.4554 3.5 24.5 4.54467 24.5 5.83333V22.1667C24.5 23.4554 23.4554 24.5 22.1667 24.5H5.83333C4.54467 24.5 3.5 23.4554 3.5 22.1667Z" stroke="#195EFC" stroke-width="1.5"/>
<path d="M16.1652 16.158C16.8868 15.4344 17.333 14.436 17.333 13.3333C17.333 11.1242 15.5421 9.33331 13.333 9.33331C11.1239 9.33331 9.33301 11.1242 9.33301 13.3333C9.33301 15.5424 11.1239 17.3333 13.333 17.3333C14.4395 17.3333 15.4411 16.8841 16.1652 16.158ZM16.1652 16.158L18.6663 18.6666" stroke="#195EFC" stroke-width="1.5" stroke-linecap="round" stroke-linejoin="round"/>
</svg>
