<svg width="33" height="33" viewBox="0 0 33 33" fill="none" xmlns="http://www.w3.org/2000/svg">
<path fill-rule="evenodd" clip-rule="evenodd" d="M16.5 1.71875C8.33654 1.71875 1.71875 8.33654 1.71875 16.5C1.71875 24.6635 8.33654 31.2812 16.5 31.2812C24.6635 31.2812 31.2812 24.6635 31.2812 16.5C31.2812 8.33654 24.6635 1.71875 16.5 1.71875ZM15.0833 22.0417L10.2708 17.2292C9.86807 16.8264 9.86807 16.1736 10.2708 15.7708L15.0833 10.9583C15.4861 10.5556 16.1389 10.5556 16.5417 10.9583C16.9444 11.361 16.9444 12.014 16.5417 12.4167L13.4897 15.4688H22C22.5695 15.4688 23.0312 15.9305 23.0312 16.5C23.0312 17.0695 22.5695 17.5312 22 17.5312H13.4897L16.5417 20.5833C16.9444 20.9861 16.9444 21.6389 16.5417 22.0417C16.1389 22.4444 15.4861 22.4444 15.0833 22.0417Z" fill="#000C36"/>
</svg>
