<svg width="43" height="42" viewBox="0 0 43 42" fill="none" xmlns="http://www.w3.org/2000/svg">
<rect y="3" width="40" height="38.1818" rx="5" fill="#000C36"/>
<rect x="3" width="40" height="38.1818" rx="5" fill="url(#paint0_linear_1150_914)"/>
<path d="M24.9922 24H27.9922M27.9922 24H30.9922M27.9922 24V21M27.9922 24V27" stroke="#F6F9FE" stroke-width="1.5" stroke-linecap="round" stroke-linejoin="round"/>
<path d="M15 16.4V11.6C15 11.2686 15.2686 11 15.6 11H20.4C20.7314 11 21 11.2686 21 11.6V16.4C21 16.7314 20.7314 17 20.4 17H15.6C15.2686 17 15 16.7314 15 16.4Z" stroke="#F6F9FE" stroke-width="1.5"/>
<path d="M15 26.4V21.6C15 21.2686 15.2686 21 15.6 21H20.4C20.7314 21 21 21.2686 21 21.6V26.4C21 26.7314 20.7314 27 20.4 27H15.6C15.2686 27 15 26.7314 15 26.4Z" stroke="#F6F9FE" stroke-width="1.5"/>
<path d="M25 16.4V11.6C25 11.2686 25.2686 11 25.6 11H30.4C30.7314 11 31 11.2686 31 11.6V16.4C31 16.7314 30.7314 17 30.4 17H25.6C25.2686 17 25 16.7314 25 16.4Z" stroke="#F6F9FE" stroke-width="1.5"/>
<defs>
<linearGradient id="paint0_linear_1150_914" x1="23" y1="0" x2="23" y2="38.1818" gradientUnits="userSpaceOnUse">
<stop stop-color="#195EFC"/>
<stop offset="1" stop-color="#0D23ED"/>
</linearGradient>
</defs>
</svg>
