<svg width="59" height="60" viewBox="0 0 59 60" fill="none" xmlns="http://www.w3.org/2000/svg">
<rect width="58.9091" height="60" rx="15" fill="#195EFC"/>
<path d="M30.9072 35.5417H34.5322M34.5322 35.5417H38.1572M34.5322 35.5417V31.9167M34.5322 35.5417V39.1667" stroke="#F6F9FE" stroke-width="1.5" stroke-linecap="round" stroke-linejoin="round"/>
<path d="M18.833 26.3583V20.5583C18.833 20.1579 19.1576 19.8333 19.558 19.8333H25.358C25.7584 19.8333 26.083 20.1579 26.083 20.5583V26.3583C26.083 26.7587 25.7584 27.0833 25.358 27.0833H19.558C19.1576 27.0833 18.833 26.7587 18.833 26.3583Z" stroke="#F6F9FE" stroke-width="1.5"/>
<path d="M18.833 38.4417V32.6417C18.833 32.2412 19.1576 31.9167 19.558 31.9167H25.358C25.7584 31.9167 26.083 32.2412 26.083 32.6417V38.4417C26.083 38.8421 25.7584 39.1667 25.358 39.1667H19.558C19.1576 39.1667 18.833 38.8421 18.833 38.4417Z" stroke="#F6F9FE" stroke-width="1.5"/>
<path d="M30.917 26.3583V20.5583C30.917 20.1579 31.2416 19.8333 31.642 19.8333H37.442C37.8424 19.8333 38.167 20.1579 38.167 20.5583V26.3583C38.167 26.7587 37.8424 27.0833 37.442 27.0833H31.642C31.2416 27.0833 30.917 26.7587 30.917 26.3583Z" stroke="#F6F9FE" stroke-width="1.5"/>
</svg>
