<svg width="29" height="29" viewBox="0 0 29 29" fill="none" xmlns="http://www.w3.org/2000/svg">
<path d="M16.9072 20.5417H20.5322M20.5322 20.5417H24.1572M20.5322 20.5417V16.9167M20.5322 20.5417V24.1667" stroke="black" stroke-width="1.5" stroke-linecap="round" stroke-linejoin="round"/>
<path d="M4.83301 11.3583V5.55833C4.83301 5.15792 5.1576 4.83333 5.55801 4.83333H11.358C11.7584 4.83333 12.083 5.15792 12.083 5.55833V11.3583C12.083 11.7587 11.7584 12.0833 11.358 12.0833H5.55801C5.1576 12.0833 4.83301 11.7587 4.83301 11.3583Z" stroke="black" stroke-width="1.5"/>
<path d="M4.83301 23.4417V17.6417C4.83301 17.2412 5.1576 16.9167 5.55801 16.9167H11.358C11.7584 16.9167 12.083 17.2412 12.083 17.6417V23.4417C12.083 23.8421 11.7584 24.1667 11.358 24.1667H5.55801C5.1576 24.1667 4.83301 23.8421 4.83301 23.4417Z" stroke="black" stroke-width="1.5"/>
<path d="M16.917 11.3583V5.55833C16.917 5.15792 17.2416 4.83333 17.642 4.83333H23.442C23.8424 4.83333 24.167 5.15792 24.167 5.55833V11.3583C24.167 11.7587 23.8424 12.0833 23.442 12.0833H17.642C17.2416 12.0833 16.917 11.7587 16.917 11.3583Z" stroke="black" stroke-width="1.5"/>
</svg>
